PathFileType  4	(X/Y/Z) C:\Users\antoi\Documents\MyRepositories\mobilecap\ResultsAnalysis
DataRate	CameraRate	NumFrames	NumMarkers	Units	OrigDataRate	OrigDataStartFrame	OrigNumFrames
100.0	100.0	4	51	mm	100.0	120	136
Frame#	Time	r_knee			r_shank_antsup			r_ankle			r_calc			r_5meta			r_toe			L_knee			L_shank_antsup			L_ankle			L_calc			L_5meta			L_toe			r_sh2			r_sh3			r_sh4			L_sh2			L_sh3			r_thigh1			r_thigh2			r_thigh3			r_thigh4			r_thigh5			L_thigh1			L_thigh2			L_thigh3			L_thigh4			r.ASIS			r.PSIS			L.ASIS			L.PSIS			C7			R_Shoulder			L_Shoulder			R_Sternum			L_Sternum			R_humerus			R_elbow_med			R_elbow_lat			R_forearm			R_wrist_radius			R_wrist_ulna			L_humerus			L_elbow_med			L_elbow_lat			L_forearm			L_wrist_radius			L_wrist_ulna			R_HJC			L_HJC			R_HJC_reg			L_HJC_reg			
		X1	Y1	Z1	X2	Y2	Z2	X3	Y3	Z3	X4	Y4	Z4	X5	Y5	Z5	X6	Y6	Z6	X7	Y7	Z7	X8	Y8	Z8	X9	Y9	Z9	X10	Y10	Z10	X11	Y11	Z11	X12	Y12	Z12	X13	Y13	Z13	X14	Y14	Z14	X15	Y15	Z15	X16	Y16	Z16	X17	Y17	Z17	X18	Y18	Z18	X19	Y19	Z19	X20	Y20	Z20	X21	Y21	Z21	X22	Y22	Z22	X23	Y23	Z23	X24	Y24	Z24	X25	Y25	Z25	X26	Y26	Z26	X27	Y27	Z27	X28	Y28	Z28	X29	Y29	Z29	X30	Y30	Z30	X31	Y31	Z31	X32	Y32	Z32	X33	Y33	Z33	X34	Y34	Z34	X35	Y35	Z35	X36	Y36	Z36	X37	Y37	Z37	X38	Y38	Z38	X39	Y39	Z39	X40	Y40	Z40	X41	Y41	Z41	X42	Y42	Z42	X43	Y43	Z43	X44	Y44	Z44	X45	Y45	Z45	X46	Y46	Z46	X47	Y47	Z47	X48	Y48	Z48	X49	Y49	Z49	X50	Y50	Z50	X51	Y51	Z51	

120	1.19000000	1492.93083	545.36163	-33.02694	1549.53412	427.21893	-48.40174	1503.61997	90.16724	-65.78270	1444.29508	60.87349	-121.10828	1638.06781	33.87396	-16.49131	1678.63444	65.74465	-83.20916	1163.19252	519.39121	-349.82941	1139.73369	405.28379	-330.19823	861.38447	184.37448	-310.36336	793.36539	194.05907	-254.69175	935.82337	46.78195	-344.98965	972.33694	49.78708	-276.44316	1567.45651	316.52258	-71.95971	1490.36717	406.68883	-2.73043	1514.60819	292.59076	-11.08940	1071.34818	450.44008	-368.93117	1018.44674	343.21284	-374.45971	1498.77475	793.63355	-35.53471	1535.96032	688.89911	-54.31820	1516.63189	648.82540	-2.53142	1417.47474	749.91974	30.83427	1461.42798	644.25145	7.07300	1313.98087	740.25192	-373.56330	1286.97966	607.13372	-360.13443	1205.05967	759.24070	-396.57663	1177.13214	624.26220	-372.75263	1387.32962	1016.69711	-47.41013	1180.23451	1040.48732	-132.14487	1387.36331	997.10508	-316.09017	1180.81904	1041.09091	-229.23024	1262.47043	1547.45218	-156.98764	1304.15993	1452.65379	26.36574	1341.78478	1500.52867	-330.64803	1389.95237	1450.88097	-125.96336	1390.86266	1453.43444	-173.45480	1283.25911	1277.77897	88.40640	1185.81212	1072.96692	17.01544	1190.00317	1091.32482	98.07569	1258.51430	933.58250	123.86831	1272.96791	812.59690	135.84117	1234.71682	807.91491	154.85396	1365.52074	1338.81436	-420.30492	1306.22423	1115.68234	-414.20957	1348.81401	1143.52123	-478.01442	1489.37396	1073.89292	-412.71457	1583.59213	1000.25316	-408.79273	1570.17553	978.90511	-450.79721	1306.01137	933.14675	-78.29485	1306.81069	909.55956	-290.38426	1316.73991	921.86399	-86.51739	1317.81258	922.96364	-264.31027	
121	1.20000000	1506.59706	545.50578	-31.95052	1560.71056	425.71553	-47.99800	1505.27166	90.46620	-66.33085	1445.03650	61.67476	-121.30887	1638.24702	34.03708	-16.36852	1679.71377	63.57271	-83.94170	1186.73593	516.73363	-350.39016	1160.19610	403.46779	-331.59497	875.15996	193.29415	-309.16210	808.90365	207.61871	-252.06031	939.08813	50.68033	-344.33534	975.86794	50.58879	-276.04613	1575.24816	314.56901	-72.13658	1501.16449	406.62039	-2.12909	1522.34112	291.95895	-10.82839	1093.28982	451.55064	-368.41864	1036.19428	346.52444	-374.45596	1513.99596	794.30185	-32.87269	1550.43870	689.37837	-52.28464	1530.89726	649.18441	-0.75264	1432.08864	750.50515	32.77342	1475.53967	644.71009	8.67955	1332.80906	740.30870	-372.51054	1308.98872	606.42525	-360.43618	1223.36251	757.08215	-394.81483	1198.70063	621.28339	-372.27830	1402.32469	1018.78796	-45.48738	1195.34461	1041.22417	-130.80626	1402.17989	997.60082	-313.73845	1195.43609	1041.91476	-228.19392	1276.49380	1548.45355	-153.98032	1318.36619	1453.20302	29.00821	1355.63393	1502.17235	-327.81886	1404.30036	1451.94058	-123.19835	1404.95568	1454.65078	-170.86238	1298.06700	1278.11725	90.55635	1201.75244	1073.07833	18.30181	1205.56233	1091.26635	99.48119	1274.57374	933.69396	125.08615	1289.32344	812.72538	136.83067	1251.04038	807.91847	155.76138	1377.77654	1340.17302	-417.86358	1315.77989	1117.89433	-410.65186	1358.43747	1144.72059	-474.78557	1498.12346	1071.52430	-411.17028	1590.71727	995.78645	-408.71766	1576.22593	974.92121	-450.76647	1320.97441	934.81314	-76.09722	1322.09465	910.04082	-288.05335	1332.70738	922.70885	-84.20495	1332.88150	923.95311	-261.79822	
122	1.21000000	1519.31990	545.37240	-30.91871	1570.74243	424.09546	-47.39571	1506.57258	90.66013	-66.81921	1445.54402	62.26640	-121.43531	1638.31559	34.30891	-16.22609	1680.47408	61.97149	-84.46302	1211.26376	514.01624	-351.32425	1181.87157	401.67304	-333.18378	890.73109	202.69612	-308.07417	826.73840	222.07891	-249.63458	943.08302	55.75939	-343.68359	980.20266	52.37537	-275.82390	1582.15080	312.62035	-72.05291	1510.72793	406.35177	-1.54785	1529.02700	291.20039	-10.49514	1116.58659	452.68177	-368.23214	1055.32296	349.96154	-374.64332	1528.81059	794.67873	-31.12921	1564.26231	689.42552	-50.97047	1544.71617	649.31495	0.51416	1446.62920	751.16338	34.43195	1489.19194	645.02862	10.00590	1351.82226	740.54551	-371.75538	1331.66500	605.91076	-361.30011	1241.84872	754.70987	-393.24492	1220.96087	618.10079	-372.38385	1417.34486	1021.00176	-43.54284	1210.38601	1042.05382	-129.15545	1416.59114	998.29261	-311.26335	1209.84063	1042.98375	-226.81729	1290.38992	1549.62113	-151.05995	1332.62825	1454.01012	31.55617	1369.25639	1503.96862	-325.11543	1418.60840	1453.18640	-120.56359	1419.07101	1456.10437	-168.48615	1312.91791	1278.76752	92.69837	1217.65713	1073.51012	19.63971	1221.10958	1091.51571	100.94384	1290.78744	934.18190	126.34293	1306.00805	813.32596	137.89002	1267.68785	808.26605	156.65923	1389.82589	1341.76174	-415.56754	1325.18907	1120.30674	-407.03980	1367.81869	1146.11190	-471.58783	1506.67641	1069.22064	-409.80924	1597.21414	991.14006	-408.94702	1581.68467	970.86200	-451.02474	1335.90297	936.60711	-73.76668	1337.05198	910.72573	-285.59200	1348.70130	923.53703	-81.89373	1347.72288	925.20912	-259.21519	
123	1.22000000	1531.09129	545.04159	-29.95483	1579.75665	422.44079	-46.70540	1507.63785	90.78369	-67.19842	1445.91454	62.74494	-121.47265	1638.33782	34.52677	-16.08952	1681.04172	60.79495	-84.77831	1236.53749	511.35232	-352.57919	1204.72743	399.99444	-334.89446	908.04816	212.42983	-307.15035	846.84570	237.16741	-247.54133	948.00911	62.07353	-343.03396	985.48668	55.28126	-275.77185	1588.31462	310.74560	-71.80014	1519.25915	405.94950	-0.98379	1534.90015	290.38404	-10.10251	1141.07302	453.86317	-368.36625	1075.73483	353.45100	-374.97305	1543.16264	794.75399	-30.19392	1577.38752	689.03643	-50.27800	1557.97974	649.18427	1.34699	1460.98088	751.86320	35.87420	1502.32798	645.23083	11.12910	1370.89389	740.96465	-371.32649	1354.80196	605.62480	-362.67121	1260.42888	752.17021	-391.85779	1243.74178	614.81459	-372.98464	1432.40594	1023.21051	-41.69227	1225.30090	1043.01316	-127.13004	1430.50729	999.11441	-308.77000	1224.00832	1044.15985	-225.01842	1304.16610	1550.91944	-148.24154	1346.94518	1455.00608	33.99329	1382.59825	1505.82388	-322.57419	1432.81470	1454.55362	-118.11199	1433.14832	1457.71542	-166.33247	1327.82280	1279.65147	94.81479	1233.48445	1074.19304	21.07242	1236.64836	1092.00398	102.50119	1307.14449	934.96430	127.64014	1323.03585	814.31857	139.00495	1284.65401	808.88132	157.56363	1401.62729	1343.46688	-413.41866	1334.56803	1122.78281	-403.39627	1377.00673	1147.60561	-468.45996	1515.08676	1066.96640	-408.66417	1603.12501	986.31519	-409.47938	1586.61863	966.74091	-451.57532	1350.80501	938.44611	-71.33986	1351.55854	911.53842	-283.03706	1364.52619	924.52826	-79.56918	1362.20503	926.59230	-256.53877	
